HIERARCHY
ROOT Hips
{
	OFFSET 0.000000 0.000000 0.000000
	CHANNELS 6 Xposition Yposition Zposition Zrotation Yrotation Xrotation 
	JOINT LeftUpLeg_virtual
	{
		OFFSET 0.000000 0.000000 0.000000
		CHANNELS 3 Zrotation Yrotation Xrotation
		JOINT LeftUpLeg
		{
			OFFSET 10.205400 -3.823500 0.155100
			CHANNELS 3 Zrotation Yrotation Xrotation
			JOINT LeftLeg
			{
				OFFSET 0.708757 -12.982077 0.567790
				CHANNELS 3 Zrotation Yrotation Xrotation
				JOINT LeftFoot
				{
					OFFSET -0.708756 -10.717838 -2.184338
					CHANNELS 3 Zrotation Yrotation Xrotation
					JOINT LeftToeBase
					{
						OFFSET 0.108149 -7.191104 7.560241
						CHANNELS 3 Zrotation Yrotation Xrotation
						End Site
						{
							OFFSET 0.000000 0.000000 0.000000
						}
					}
				}
			}
		}
	}
	JOINT RightUpLeg_virtual
	{
		OFFSET 0.000000 0.000000 0.000000
		CHANNELS 3 Zrotation Yrotation Xrotation
		JOINT RightUpLeg
		{
			OFFSET -10.205400 -3.823500 0.005500
			CHANNELS 3 Zrotation Yrotation Xrotation
			JOINT RightLeg
			{
				OFFSET -0.708756 -12.982134 0.610632
				CHANNELS 3 Zrotation Yrotation Xrotation
				JOINT RightFoot
				{
					OFFSET 0.708754 -10.717769 -1.945823
					CHANNELS 3 Zrotation Yrotation Xrotation
					JOINT RightToeBase
					{
						OFFSET -0.108140 -7.191069 7.372968
						CHANNELS 3 Zrotation Yrotation Xrotation
						End Site
						{
							OFFSET 0.000000 0.000000 0.000000
						}
					}
				}
			}
		}
	}
	JOINT Spine_virtual
	{
		OFFSET 0.000000 0.000000 0.000000
		CHANNELS 3 Zrotation Yrotation Xrotation
		JOINT Spine
		{
			OFFSET 0.000000 6.876099 0.125700
			CHANNELS 3 Zrotation Yrotation Xrotation
			JOINT Spine1
			{
				OFFSET 0.000000 8.022060 0.146608
				CHANNELS 3 Zrotation Yrotation Xrotation
				JOINT Spine2
				{
					OFFSET 0.000000 9.168068 0.167552
					CHANNELS 3 Zrotation Yrotation Xrotation
					JOINT Neck_virtual
					{
						OFFSET 0.000000 0.000000 0.000000
						CHANNELS 3 Zrotation Yrotation Xrotation
						JOINT Neck
						{
							OFFSET 0.000000 10.314075 0.188496
							CHANNELS 3 Zrotation Yrotation Xrotation
							JOINT Head
							{
								OFFSET 0.000000 7.643700 -2.377400
								CHANNELS 3 Zrotation Yrotation Xrotation
								End Site
								{
									OFFSET 0.000000 0.000000 0.000000
								}
							}
						}
					}
					JOINT LeftShoulder_virtual
					{
						OFFSET 0.000000 0.000000 0.000000
						CHANNELS 3 Zrotation Yrotation Xrotation
						JOINT LeftShoulder
						{
							OFFSET 4.392200 8.824978 0.174984
							CHANNELS 3 Zrotation Yrotation Xrotation
							JOINT LeftArm
							{
								OFFSET 8.771219 -2.981674 -0.026999
								CHANNELS 3 Zrotation Yrotation Xrotation
								JOINT LeftForeArm
								{
									OFFSET 8.512804 0.000000 -0.000000
									CHANNELS 3 Zrotation Yrotation Xrotation
									JOINT LeftHand
									{
										OFFSET 18.484802 0.000000 -0.000000
										CHANNELS 3 Zrotation Yrotation Xrotation
										End Site
										{
											OFFSET 0.000000 0.000000 0.000000
										}
									}
								}
							}
						}
					}
					JOINT RightShoulder_virtual
					{
						OFFSET 0.000000 0.000000 0.000000
						CHANNELS 3 Zrotation Yrotation Xrotation
						JOINT RightShoulder
						{
							OFFSET -4.392200 8.824993 0.141379
							CHANNELS 3 Zrotation Yrotation Xrotation
							JOINT RightArm
							{
								OFFSET -8.771282 -2.981682 -0.094208
								CHANNELS 3 Zrotation Yrotation Xrotation
								JOINT RightForeArm
								{
									OFFSET -8.494598 0.000000 0.000000
									CHANNELS 3 Zrotation Yrotation Xrotation
									JOINT RightHand
									{
										OFFSET -18.483803 0.000000 0.000001
										CHANNELS 3 Zrotation Yrotation Xrotation
										End Site
										{
											OFFSET 0.000000 0.000000 0.000000
										}
									}
								}
							}
						}
					}
				}
			}
		}
	}
}
MOTION
Frames: 14
Frame Time: 0.033333
-12.414871 34.782627 79.841766 153.519676 88.999072 153.727013 -2.319662 -10.212116 13.312387 -13.169572 5.035003 -46.222964 11.539505 8.366982 18.656056 -0.872686 -8.169695 19.435390 0.000000 0.000000 0.000000 5.943033 -10.269596 11.534468 -0.407531 -7.505390 0.226946 -4.256770 2.103589 20.906099 3.840899 12.098292 3.176227 0.000000 0.000000 0.000000 -0.538964 -5.239631 6.072866 2.240509 9.902779 -14.864978 -2.013467 -1.827441 6.665956 0.022246 0.139996 0.003151 -1.909601 -0.019461 8.854856 -9.620480 8.933441 15.820796 0.000000 0.000000 0.000000 -0.271209 0.512516 5.369763 2.164650 -0.192627 -0.726813 -40.223090 14.827572 46.057134 -150.814839 -83.960476 173.955725 0.000000 0.000000 0.000000 -4.415184 1.708434 4.746006 31.469680 8.659371 3.340294 35.037081 6.668018 1.952347 -4.220548 58.300746 -3.524571 0.000000 0.000000 0.000000 
-10.927157 34.679886 79.661552 162.432499 88.481863 162.467920 -1.848660 -10.315941 13.634776 -14.547519 4.381821 -44.074514 12.543616 8.481583 20.781694 -1.198247 -8.289990 19.466777 0.000000 0.000000 0.000000 5.658997 -10.141105 11.415920 -1.322591 -7.486732 1.384442 -4.427804 2.640367 22.201950 5.128135 13.708761 6.449051 0.000000 0.000000 0.000000 -0.629871 -5.176847 5.935157 1.506674 9.695061 -14.676564 -1.824177 -1.791261 6.807816 0.069616 0.027653 -0.037787 -1.731344 0.098610 9.054310 -9.875369 9.070367 15.770992 0.000000 0.000000 0.000000 -0.098701 0.556028 5.462673 2.092111 -0.205081 -0.773190 -40.313935 15.049413 45.842679 -149.531979 -83.993316 172.655311 0.000000 0.000000 0.000000 -4.167421 1.752943 4.846077 31.704461 8.341578 3.253662 36.001073 4.662658 3.697945 -4.173234 55.939345 -3.268088 0.000000 0.000000 0.000000 
-9.483372 34.620358 79.368546 169.669754 88.092071 169.564364 -1.188417 -9.599146 13.641950 -15.702330 2.407866 -41.510796 13.293755 7.358425 22.752672 -1.401223 -8.064030 18.995185 0.000000 0.000000 0.000000 5.062218 -9.992622 11.124130 -2.331588 -8.646552 2.245617 -4.478267 2.279237 23.656857 6.618755 14.636455 9.749666 0.000000 0.000000 0.000000 -0.598268 -5.127630 5.636308 0.867995 9.374754 -14.556909 -1.586507 -1.793379 7.001049 0.058922 0.020326 -0.024511 -1.638666 0.082946 9.205744 -10.177535 9.067553 15.711144 0.000000 0.000000 0.000000 -0.021293 0.576281 5.614569 1.890811 -0.281202 -0.739987 -40.460750 15.481438 45.610695 -149.427709 -84.046748 172.548911 0.000000 0.000000 0.000000 -3.950541 1.797356 5.024028 31.949627 8.004252 3.226816 36.824658 2.101654 5.097311 -3.945180 52.973540 -2.789607 0.000000 0.000000 0.000000 
-8.104242 34.595104 78.985710 175.113947 87.918038 175.080944 -0.432529 -8.662481 13.388994 -16.678026 -0.273569 -38.988523 13.613049 5.991770 24.496711 -1.236467 -7.465453 17.800144 0.000000 0.000000 0.000000 4.799987 -9.484795 10.855233 -3.630967 -10.067130 2.759334 -5.070610 1.263457 26.088650 7.943871 14.839165 12.992935 0.000000 0.000000 0.000000 -0.405149 -4.881006 5.168345 0.316998 8.955010 -14.487069 -1.441138 -1.820967 7.137884 0.077955 0.027160 -0.024156 -1.548646 0.122195 9.457402 -10.392831 9.231082 15.668869 0.000000 0.000000 0.000000 0.058358 0.565727 5.877847 1.586918 -0.457009 -0.702904 -40.599577 15.929840 45.316430 -149.351976 -84.120132 172.468738 0.000000 0.000000 0.000000 -3.763847 1.791736 5.294989 32.148324 7.602402 3.087442 37.516972 -0.843810 6.231790 -3.909225 49.753410 -2.463375 0.000000 0.000000 0.000000 
-6.799764 34.602715 78.568588 175.882808 87.317808 175.846075 -0.457559 -8.273159 13.593115 -17.330268 -2.340178 -36.443721 14.081663 5.807731 25.462208 -0.571687 -6.676557 14.401061 0.000000 0.000000 0.000000 4.561929 -8.655497 10.977356 -4.899585 -11.435268 2.585964 -5.901774 0.055334 29.597935 8.860683 14.222317 15.174811 0.000000 0.000000 0.000000 -0.348637 -4.562343 4.754484 -0.092132 8.314363 -14.282889 -1.326143 -1.914449 7.248121 0.052661 -0.004485 0.000450 -1.466230 0.039436 9.600563 -10.478658 9.424841 15.723575 0.000000 0.000000 0.000000 0.124613 0.467527 6.074127 1.442515 -0.791331 -0.642761 -40.763235 16.254257 44.948806 -149.102128 -84.308904 172.206281 0.000000 0.000000 0.000000 -3.590887 1.679335 5.526829 32.339204 7.208819 2.952449 38.146367 -3.829585 6.899731 -3.950195 46.356904 -2.234885 0.000000 0.000000 0.000000 
-5.550635 34.659409 78.167305 175.151964 86.881400 175.068267 -0.725763 -7.502895 13.777915 -17.924161 -3.611565 -33.916431 14.375142 6.242081 26.135002 -0.191758 -6.337047 11.562851 0.000000 0.000000 0.000000 4.138694 -7.557270 11.008018 -5.806445 -11.910148 0.610234 -6.761413 -0.070444 35.070515 9.099951 13.644302 16.030741 0.000000 0.000000 0.000000 -0.391515 -3.917879 4.406496 -0.311912 7.639290 -13.900443 -1.221040 -2.051585 7.363628 0.026874 -0.015853 0.005976 -1.344548 -0.170867 9.737288 -10.559628 9.573745 15.797645 0.000000 0.000000 0.000000 0.229794 0.326729 6.211897 1.283071 -1.256095 -0.483559 -40.857492 16.289824 44.701768 -149.611879 -84.580254 172.690200 0.000000 0.000000 0.000000 -3.407016 1.536405 5.739358 32.422218 6.840885 2.665856 38.753882 -6.845155 6.990069 -3.826890 42.951894 -1.878274 0.000000 0.000000 0.000000 
-4.359315 34.756416 77.826790 178.338001 86.269859 178.449238 -0.890399 -6.611364 13.955787 -18.352466 -4.492907 -31.792126 14.611340 6.292923 26.524900 -0.006275 -6.150041 9.610607 0.000000 0.000000 0.000000 3.934859 -6.216481 10.884026 -6.331008 -11.966167 -3.114886 -7.311334 0.150220 40.272940 8.885934 13.488002 16.245716 0.000000 0.000000 0.000000 -0.372799 -3.173851 3.993889 -0.279112 6.921848 -13.471699 -1.053979 -2.195684 7.400685 0.030225 0.012738 0.010182 -1.294908 -0.225328 9.977388 -10.559650 9.750015 15.869229 0.000000 0.000000 0.000000 0.218840 0.165223 6.487374 1.207142 -1.837205 -0.422553 -40.751135 16.145097 44.612986 -149.219170 -84.791129 172.244995 0.000000 0.000000 0.000000 -3.317016 1.454674 6.028348 32.502254 6.388945 2.284557 39.524293 -9.985462 6.560293 -3.607729 39.844523 -1.462604 0.000000 0.000000 0.000000 
-3.232615 34.887199 77.537842 179.343405 85.119259 179.336261 -1.266307 -5.891833 14.148648 -18.543275 -5.379225 -29.388600 14.624823 5.869036 26.376517 0.089238 -5.966207 8.387821 0.000000 0.000000 0.000000 3.602027 -5.177001 11.054394 -6.542804 -11.493130 -8.417494 -7.452808 0.775925 44.254179 8.654436 13.892612 16.669673 0.000000 0.000000 0.000000 -0.499901 -2.469949 3.819168 -0.174395 6.068397 -12.756789 -0.951417 -2.369263 7.508453 0.006221 0.009316 0.005648 -1.177129 -0.610487 10.106692 -10.455994 9.923223 16.012182 0.000000 0.000000 0.000000 0.327410 -0.099032 6.597024 1.245336 -2.503875 -0.263577 -40.448804 15.911206 44.591720 -147.977715 -84.863932 170.932396 0.000000 0.000000 0.000000 -3.174217 1.117846 6.249148 32.451117 6.000859 1.811456 40.430649 -13.402290 6.056380 -3.467010 37.338896 -1.251810 0.000000 0.000000 0.000000 
-2.154106 35.031689 77.310463 179.443085 83.823114 179.494270 -1.726637 -5.134062 14.014852 -18.525590 -6.340487 -26.904467 14.706864 5.102130 26.113208 0.126448 -5.678496 7.289843 0.000000 0.000000 0.000000 3.206001 -4.053120 10.974898 -6.394976 -10.356823 -14.733838 -7.315326 1.601163 46.724498 8.275718 14.418801 16.294422 0.000000 0.000000 0.000000 -0.717818 -1.703576 3.507322 -0.053119 5.200986 -12.002976 -0.853822 -2.519185 7.557160 -0.007776 0.049169 0.021408 -1.068814 -0.956115 10.252011 -10.305155 10.128980 16.207448 0.000000 0.000000 0.000000 0.432329 -0.408191 6.766977 1.430413 -3.174574 -0.106197 -40.040307 15.771008 44.880613 -147.807589 -84.910767 170.678354 0.000000 0.000000 0.000000 -3.008265 0.783011 6.395633 32.280082 5.378812 1.325080 41.492293 -17.018169 5.475259 -3.222744 35.679464 -0.955551 0.000000 0.000000 0.000000 
-1.133607 35.162498 77.136345 179.525157 82.414312 179.638387 -2.202819 -4.486770 13.639743 -18.388172 -7.146908 -24.177951 14.821618 4.354309 25.592621 0.063542 -5.357810 6.393076 0.000000 0.000000 0.000000 2.863428 -3.094466 10.801423 -6.056709 -8.969118 -21.123449 -7.057297 2.649870 46.790781 8.027059 14.988440 15.799372 0.000000 0.000000 0.000000 -0.949636 -0.913586 3.193285 0.103265 4.315021 -11.216631 -0.777459 -2.798009 7.603372 -0.002566 -0.002422 0.004895 -0.979710 -1.075635 10.400087 -10.125627 10.244451 16.379017 0.000000 0.000000 0.000000 0.492201 -0.581478 6.914666 1.723067 -3.631492 0.034868 -39.372199 15.694361 45.401726 -148.681607 -84.965764 171.443281 0.000000 0.000000 0.000000 -2.900297 0.561663 6.601347 31.833965 4.882000 0.772467 42.683929 -20.833513 5.054468 -2.962139 34.829245 -0.714336 0.000000 0.000000 0.000000 
-0.164635 35.269791 76.979820 179.940091 81.149402 179.941621 -2.635096 -3.654547 13.249370 -18.008110 -8.002412 -21.348127 14.704393 3.868272 25.226675 -0.165701 -5.015781 5.426536 0.000000 0.000000 0.000000 2.618381 -2.086522 10.590208 -5.583600 -7.165448 -26.644583 -6.902539 3.529171 44.247806 8.162121 15.387749 15.708699 0.000000 0.000000 0.000000 -1.120128 -0.190333 3.040819 0.272824 3.622025 -10.409242 -0.731170 -2.973876 7.611072 0.010553 0.004133 0.017308 -0.992341 -1.161515 10.475739 -9.883324 10.343059 16.505227 0.000000 0.000000 0.000000 0.449803 -0.721373 6.957091 2.063551 -3.965509 0.389322 -38.796441 15.584460 45.766185 -149.964016 -84.982566 172.648085 0.000000 0.000000 0.000000 -2.921112 0.408492 6.748828 31.196705 4.447994 0.337330 43.849405 -24.507193 5.292402 -2.731191 34.479355 -0.622377 0.000000 0.000000 0.000000 
0.791637 35.347454 76.875809 -179.491252 79.772976 -179.599947 -2.948773 -3.131339 13.062458 -17.453063 -8.501239 -18.960977 14.605608 3.490499 25.157624 -0.553077 -4.953259 4.224391 0.000000 0.000000 0.000000 2.574692 -1.411000 10.313230 -4.904539 -5.169055 -30.982247 -6.973780 3.964438 39.359624 8.785443 15.464583 16.446037 0.000000 0.000000 0.000000 -1.181580 0.326900 2.993082 0.437930 3.161212 -9.699791 -0.720311 -3.098047 7.596800 -0.036745 -0.003380 -0.021212 -1.039248 -1.173223 10.528806 -9.638169 10.326128 16.585444 0.000000 0.000000 0.000000 0.358048 -0.825932 6.987240 2.363930 -4.195346 0.564067 -38.309496 15.440010 46.166440 -150.731852 -85.009347 173.382945 0.000000 0.000000 0.000000 -2.970956 0.323473 6.840557 30.400936 4.176316 -0.010489 44.876969 -27.846388 6.140312 -2.433125 34.406303 -0.457151 0.000000 0.000000 0.000000 
1.727287 35.395741 76.783882 -179.790387 78.335440 -179.814456 -3.337449 -2.942064 12.822862 -16.784415 -8.984015 -16.890679 14.255367 3.310254 25.343733 -0.748764 -4.902713 2.948059 0.000000 0.000000 0.000000 2.473860 -1.005396 9.900726 -4.036966 -2.990797 -34.222236 -7.361309 4.048761 32.888249 9.738585 15.113786 18.033340 0.000000 0.000000 0.000000 -1.168402 0.575220 2.972306 0.514333 2.903091 -9.139021 -0.819903 -3.008201 7.461899 -0.005021 -0.051385 -0.003460 -1.177830 -1.301709 10.560853 -9.375060 10.271010 16.580370 0.000000 0.000000 0.000000 0.204490 -0.856077 7.051270 2.502665 -4.278250 0.739063 -37.933580 15.238830 46.517512 -151.988306 -85.065170 174.647555 0.000000 0.000000 0.000000 -3.102150 0.289254 6.972687 29.439703 4.140990 -0.342188 45.662178 -30.888906 7.612143 -2.247071 34.358249 -0.480726 0.000000 0.000000 0.000000 
2.684194 35.402546 76.656693 -179.887157 76.719635 -179.881269 -3.659600 -2.884954 12.746337 -16.143316 -9.690585 -15.161275 13.819489 2.960203 26.030167 -0.698512 -4.781285 1.775503 0.000000 0.000000 0.000000 2.531869 -0.866372 9.670875 -2.726020 -0.885019 -37.017614 -7.884464 3.889136 25.842091 10.859357 14.368121 20.203956 0.000000 0.000000 0.000000 -1.008678 0.784200 3.124745 0.550917 2.880967 -8.650670 -0.972067 -3.155988 7.292561 -0.015457 0.001237 0.056326 -1.301187 -1.430125 10.469995 -9.135077 10.080733 16.553170 0.000000 0.000000 0.000000 0.046117 -0.912211 6.948443 2.450780 -4.291732 0.903146 -37.647183 15.067187 46.704362 -152.017567 -85.099192 174.735090 0.000000 0.000000 0.000000 -3.243874 0.285331 6.902590 28.510261 4.054360 -0.553720 46.216605 -33.379111 9.398738 -2.129489 34.253242 -0.593077 0.000000 0.000000 0.000000 
